<svg width="213" height="213" viewBox="0 0 213 213" fill="none" xmlns="http://www.w3.org/2000/svg">
<path d="M188.469 149.975C187.301 149.49 185.956 149.758 185.062 150.652L150.896 184.817C150.002 185.712 149.735 187.056 150.219 188.225C150.702 189.393 151.843 190.155 153.107 190.155H187.273C189 190.155 190.4 188.755 190.4 187.028V152.863C190.399 151.598 189.637 150.458 188.469 149.975ZM160.654 183.902L184.146 160.41V183.902H160.654Z" fill="black"/>
<path d="M211.07 99.8633C209.902 99.3791 208.557 99.6466 207.663 100.541L198.3 109.904V46.2406C198.3 44.5137 196.9 43.1142 195.173 43.1142H171.152L179.872 34.3945C179.873 34.3933 179.874 34.3916 179.876 34.3903L188.277 25.9885C190.078 24.1884 191.069 21.7938 191.069 19.2478C191.069 16.7018 190.078 14.308 188.277 12.5071L178.562 2.79146C176.762 0.991365 174.367 0 171.821 0C169.275 0 166.881 0.991365 165.08 2.79146L156.674 11.1975L146.517 21.3549L124.758 43.1138H27.715V12.1851C27.715 10.4582 26.3151 9.05874 24.5886 9.05874C11.0307 9.05957 0 20.0894 0 33.6482V166.435C0 166.665 0.026625 166.89 0.0740508 167.106C0.505875 172.859 2.9949 178.205 7.15464 182.263C11.601 186.599 17.4706 188.988 23.6825 188.988H119.216L101.223 206.98C100.329 207.874 100.062 209.218 100.546 210.387C101.029 211.555 102.17 212.317 103.434 212.317H209.874C211.6 212.317 213 210.917 213 209.191V102.752C213 101.487 212.238 100.347 211.07 99.8633ZM169.503 7.2133C170.781 5.93446 172.863 5.93446 174.141 7.2133L183.857 16.9293C185.136 18.2078 185.136 20.2891 183.857 21.5679L177.662 27.7632L163.307 13.4086L169.503 7.2133ZM158.886 17.83L173.24 32.1842L167.504 37.9207L153.15 23.5665L158.886 17.83ZM206.748 137.881H200.98C199.253 137.881 197.854 139.28 197.854 141.007C197.854 142.734 199.253 144.134 200.98 144.134H206.748V153.555H200.98C199.253 153.555 197.854 154.954 197.854 156.681C197.854 158.408 199.253 159.807 200.98 159.807H206.748V169.228H200.98C199.253 169.228 197.854 170.628 197.854 172.354C197.854 174.081 199.253 175.481 200.98 175.481H206.748V184.902H200.98C199.253 184.902 197.854 186.302 197.854 188.028C197.854 189.755 199.253 191.155 200.98 191.155H206.748V206.065H110.981L142.56 174.487C143.781 173.266 143.781 171.287 142.56 170.066C142.42 169.925 142.269 169.804 142.112 169.696C140.895 168.862 139.22 168.985 138.138 170.066L125.468 182.736H23.6829C14.2011 182.736 6.56805 175.333 6.26769 165.868C6.28558 165.274 6.33176 164.685 6.40581 164.103C6.40622 164.099 6.40664 164.096 6.40706 164.093C6.442 163.816 6.48402 163.541 6.53186 163.267C6.53727 163.236 6.54309 163.205 6.5485 163.173C6.59218 162.929 6.64127 162.686 6.69494 162.444C6.70992 162.377 6.72572 162.309 6.74153 162.242C6.78896 162.038 6.84013 161.834 6.89504 161.632C6.925 161.522 6.9562 161.413 6.98823 161.304C7.03399 161.145 7.08142 160.986 7.13176 160.83C7.18209 160.673 7.23576 160.518 7.29026 160.362C7.32812 160.254 7.36556 160.145 7.40633 160.037C7.48246 159.833 7.56316 159.63 7.64637 159.429C7.67008 159.371 7.69338 159.313 7.71792 159.255C7.82484 159.005 7.93591 158.759 8.05323 158.515C8.05822 158.504 8.0628 158.494 8.06779 158.484C10.5131 153.423 15.2162 149.65 20.8603 148.48C20.8761 148.476 20.8919 148.473 20.9077 148.469C21.1665 148.416 21.4277 148.371 21.6906 148.329C21.7343 148.322 21.778 148.313 21.8225 148.307C22.0601 148.27 22.3001 148.242 22.5401 148.215C22.6075 148.208 22.6745 148.197 22.7423 148.191C22.974 148.167 23.2078 148.152 23.4416 148.137C23.5157 148.133 23.5897 148.125 23.6638 148.121C23.97 148.106 24.2787 148.098 24.5886 148.098C26.3151 148.098 27.715 146.698 27.715 144.971V122.303C27.715 120.576 26.3151 119.177 24.5886 119.177C22.8621 119.177 21.4622 120.576 21.4622 122.303V142.042C16.183 142.71 11.2828 145.064 7.41881 148.837C7.01236 149.234 6.62713 149.647 6.25188 150.066V33.6482C6.25188 24.6036 12.8357 17.0666 21.4618 15.5781V46.2406V109.798V109.799C21.4618 111.525 22.8617 112.925 24.5882 112.925C26.3147 112.925 27.7145 111.525 27.7145 109.799V109.798V49.3669H118.506L101.223 66.6499C100.002 67.8713 100.002 69.8503 101.223 71.0713C102.444 72.2919 104.423 72.2919 105.644 71.0713L128.264 48.4513C128.265 48.4504 128.265 48.4496 128.266 48.4492L148.728 27.9875L163.081 42.3421L161.397 44.0261C161.396 44.0274 161.395 44.0286 161.393 44.0298L98.3552 107.069L84.001 92.7145L96.4266 80.2889C97.6476 79.0675 97.6476 77.0885 96.4266 75.8675C95.2056 74.6469 93.2262 74.6469 92.0056 75.8675L77.3689 90.5038C77.2907 90.582 77.2175 90.6648 77.1489 90.7496C77.126 90.7779 77.1056 90.8083 77.084 90.8378C77.0399 90.8965 76.9966 90.9556 76.9562 91.0171C76.9334 91.0529 76.9126 91.0895 76.8909 91.1266C76.8564 91.1848 76.8231 91.2439 76.7927 91.3042C76.7728 91.3433 76.7549 91.3828 76.7366 91.4236C76.7087 91.4847 76.6829 91.5471 76.6592 91.6095C76.6509 91.6316 76.6401 91.6524 76.6322 91.6744L70.5413 108.929L66.3886 120.693C66.3337 120.85 66.2942 121.009 66.2646 121.169H55.8676C54.1411 121.169 52.7412 122.568 52.7412 124.295C52.7412 126.022 54.1411 127.421 55.8676 127.421H142.446C144.173 127.421 145.573 126.022 145.573 124.295C145.573 122.568 144.173 121.169 142.446 121.169H80.3297L99.3957 114.438C99.4115 114.433 99.4265 114.425 99.4423 114.419C99.5163 114.391 99.5892 114.361 99.6611 114.328C99.6898 114.314 99.7185 114.302 99.7464 114.288C99.8213 114.251 99.8949 114.21 99.9673 114.166C99.9906 114.151 100.015 114.138 100.038 114.124C100.113 114.076 100.186 114.023 100.258 113.967C100.276 113.953 100.295 113.941 100.312 113.927C100.399 113.857 100.484 113.782 100.565 113.701L164.899 49.3673H192.047V116.157L147.327 160.877C146.106 162.099 146.106 164.078 147.327 165.299C147.403 165.375 147.482 165.447 147.564 165.513C148.137 165.981 148.837 166.214 149.537 166.214C150.237 166.214 150.938 165.981 151.51 165.513C151.592 165.447 151.672 165.375 151.748 165.299C151.749 165.298 151.748 165.299 151.749 165.298L206.748 110.298V137.881ZM92.6371 110.193L83.682 113.354L77.7155 107.387L80.8768 98.4322L92.6371 110.193Z" fill="black"/>
</svg>
