<svg width="952" height="952" viewBox="0 0 952 952" fill="none" xmlns="http://www.w3.org/2000/svg">
<circle cx="476" cy="476" r="468.5" fill="#E8D9BA" stroke="white" stroke-width="15"/>
<path d="M664.568 577.012C661.88 575.898 658.787 576.513 656.73 578.57L578.132 657.167C576.076 659.225 575.46 662.318 576.574 665.005C577.686 667.693 580.311 669.445 583.219 669.445H661.816C665.789 669.445 669.008 666.225 669.008 662.253V583.656C669.007 580.747 667.255 578.125 664.568 577.012ZM600.58 655.062L654.622 601.019V655.062H600.58Z" fill="white"/>
<path d="M716.56 461.732C713.873 460.618 710.78 461.234 708.722 463.291L687.182 484.83V338.375C687.182 334.402 683.962 331.183 679.99 331.183H624.73L644.79 311.124C644.793 311.121 644.795 311.117 644.798 311.114L664.127 291.786C668.268 287.645 670.548 282.136 670.548 276.279C670.548 270.422 668.268 264.915 664.127 260.772L641.776 238.422C637.635 234.281 632.126 232 626.269 232C620.412 232 614.904 234.281 610.762 238.422L591.425 257.759L568.058 281.126L518.002 331.182H294.757V260.031C294.757 256.059 291.537 252.839 287.565 252.839C256.376 252.841 231 278.215 231 309.407V614.878C231 615.409 231.061 615.926 231.17 616.423C232.164 629.658 237.89 641.955 247.459 651.29C257.688 661.266 271.191 666.76 285.481 666.76H505.252L463.861 708.151C461.804 710.208 461.189 713.301 462.302 715.989C463.415 718.676 466.038 720.429 468.947 720.429H713.808C717.78 720.429 721 717.209 721 713.236V468.377C721 465.469 719.247 462.846 716.56 461.732ZM620.936 248.594C623.876 245.652 628.666 245.652 631.606 248.594L653.957 270.945C656.899 273.886 656.899 278.674 653.957 281.616L639.706 295.868L606.683 262.846L620.936 248.594ZM596.511 273.017L629.534 306.039L616.337 319.235L583.317 286.214L596.511 273.017ZM706.618 549.191H693.348C689.376 549.191 686.156 552.41 686.156 556.383C686.156 560.355 689.376 563.575 693.348 563.575H706.618V585.248H693.348C689.376 585.248 686.156 588.467 686.156 592.44C686.156 596.413 689.376 599.632 693.348 599.632H706.618V621.304H693.348C689.376 621.304 686.156 624.524 686.156 628.496C686.156 632.469 689.376 635.688 693.348 635.688H706.618V657.361H693.348C689.376 657.361 686.156 660.582 686.156 664.553C686.156 668.526 689.376 671.745 693.348 671.745H706.618V706.047H486.309L558.955 633.402C561.764 630.592 561.764 626.039 558.955 623.231C558.633 622.908 558.286 622.629 557.924 622.38C555.124 620.462 551.271 620.744 548.783 623.231L519.636 652.378H285.482C263.669 652.378 246.11 635.348 245.419 613.575C245.46 612.208 245.566 610.853 245.736 609.513C245.737 609.506 245.738 609.498 245.739 609.49C245.82 608.854 245.916 608.22 246.026 607.591C246.039 607.519 246.052 607.447 246.065 607.375C246.165 606.814 246.278 606.255 246.402 605.698C246.436 605.543 246.472 605.388 246.509 605.234C246.618 604.763 246.736 604.295 246.862 603.829C246.931 603.576 247.003 603.326 247.076 603.074C247.181 602.709 247.291 602.344 247.406 601.983C247.522 601.623 247.646 601.266 247.771 600.909C247.858 600.659 247.944 600.409 248.038 600.161C248.213 599.69 248.399 599.224 248.59 598.762C248.645 598.629 248.698 598.494 248.755 598.361C249.001 597.787 249.256 597.219 249.526 596.659C249.538 596.635 249.548 596.611 249.56 596.587C255.185 584.945 266.004 576.266 278.988 573.573C279.025 573.565 279.061 573.557 279.098 573.549C279.693 573.428 280.294 573.323 280.899 573.227C280.999 573.21 281.1 573.19 281.202 573.175C281.748 573.092 282.301 573.027 282.853 572.964C283.008 572.947 283.162 572.923 283.318 572.908C283.851 572.854 284.389 572.819 284.927 572.785C285.097 572.775 285.267 572.757 285.438 572.748C286.142 572.713 286.852 572.695 287.565 572.695C291.537 572.695 294.757 569.475 294.757 565.502V513.355C294.757 509.382 291.537 506.163 287.565 506.163C283.594 506.163 280.373 509.382 280.373 513.355V558.763C268.229 560.299 256.956 565.716 248.067 574.396C247.132 575.309 246.246 576.258 245.382 577.223V309.407C245.382 288.6 260.528 271.261 280.372 267.837V338.375V484.587V484.588C280.372 488.56 283.593 491.78 287.564 491.78C291.536 491.78 294.756 488.56 294.756 484.588V484.587V345.567H503.619L463.86 385.326C461.051 388.136 461.051 392.688 463.86 395.497C466.669 398.305 471.223 398.305 474.03 395.497L526.067 343.461C526.069 343.459 526.07 343.457 526.072 343.456L573.143 296.384L606.164 329.407L602.29 333.281C602.287 333.284 602.283 333.286 602.28 333.289L457.263 478.308L424.242 445.287L452.826 416.702C455.635 413.892 455.635 409.34 452.826 406.531C450.018 403.723 445.464 403.723 442.656 406.531L408.985 440.201C408.805 440.381 408.636 440.572 408.479 440.767C408.426 440.832 408.379 440.902 408.329 440.97C408.228 441.105 408.128 441.241 408.035 441.382C407.983 441.464 407.935 441.549 407.885 441.634C407.806 441.768 407.729 441.904 407.659 442.043C407.613 442.132 407.572 442.223 407.53 442.317C407.466 442.458 407.407 442.601 407.352 442.745C407.333 442.796 407.308 442.844 407.29 442.894L393.278 482.587L383.725 509.651C383.599 510.011 383.508 510.376 383.44 510.745H359.522C355.55 510.745 352.33 513.964 352.33 517.937C352.33 521.91 355.55 525.129 359.522 525.129H558.693C562.666 525.129 565.885 521.91 565.885 517.937C565.885 513.964 562.666 510.745 558.693 510.745H415.796L459.657 495.262C459.693 495.249 459.728 495.23 459.764 495.217C459.934 495.154 460.102 495.083 460.267 495.007C460.333 494.977 460.399 494.948 460.464 494.917C460.636 494.83 460.805 494.736 460.972 494.634C461.025 494.602 461.081 494.572 461.133 494.539C461.307 494.428 461.475 494.306 461.641 494.178C461.682 494.146 461.725 494.118 461.765 494.086C461.965 493.925 462.161 493.752 462.347 493.566L610.346 345.568H672.797V499.216L569.92 602.094C567.111 604.903 567.111 609.456 569.92 612.265C570.095 612.44 570.278 612.605 570.467 612.759C571.785 613.833 573.396 614.371 575.006 614.371C576.616 614.371 578.227 613.833 579.545 612.759C579.734 612.606 579.916 612.44 580.092 612.265C580.094 612.262 580.092 612.265 580.094 612.262L706.618 485.738V549.191ZM444.109 485.495L423.508 492.767L409.782 479.041L417.055 458.44L444.109 485.495Z" fill="white"/>
</svg>
