<svg width="512" height="646" viewBox="0 0 512 646" fill="none" xmlns="http://www.w3.org/2000/svg">
<path d="M453.034 495.502C450.226 494.338 446.994 494.981 444.844 497.13L362.718 579.256C360.569 581.406 359.926 584.638 361.09 587.446C362.252 590.255 364.994 592.085 368.033 592.085H450.159C454.31 592.085 457.674 588.721 457.674 584.57V502.444C457.673 499.405 455.842 496.665 453.034 495.502ZM386.173 577.056L442.642 520.587V577.056H386.173Z" fill="black"/>
<path d="M507.361 375.047C504.553 373.883 501.321 374.526 499.171 376.675L476.664 399.182V246.151C476.664 242 473.299 238.636 469.149 238.636H411.408L432.368 217.676C432.371 217.673 432.374 217.669 432.377 217.666L452.573 197.47C456.9 193.143 459.283 187.387 459.283 181.267C459.283 175.147 456.9 169.393 452.573 165.064L429.219 141.71C424.892 137.383 419.136 135 413.016 135C406.896 135 401.141 137.383 396.813 141.71L376.607 161.916L352.191 186.332L299.888 238.635H66.62V164.29C66.62 160.139 63.255 156.775 59.105 156.775C26.515 156.777 0 183.29 0 215.882V535.068C0 535.623 0.064 536.163 0.178 536.683C1.216 550.512 7.199 563.361 17.198 573.115C27.886 583.539 41.995 589.28 56.927 589.28H286.565L243.316 632.529C241.167 634.679 240.524 637.91 241.687 640.719C242.85 643.527 245.591 645.358 248.63 645.358H504.485C508.635 645.358 512 641.994 512 637.843V381.99C512 378.951 510.168 376.21 507.361 375.047ZM407.443 152.339C410.515 149.265 415.52 149.265 418.592 152.339L441.947 175.694C445.021 178.767 445.021 183.77 441.947 186.844L427.056 201.736L392.55 167.231L407.443 152.339ZM381.922 177.859L416.427 212.363L402.638 226.152L368.135 191.648L381.922 177.859ZM496.972 466.432H483.107C478.956 466.432 475.592 469.796 475.592 473.947C475.592 478.098 478.956 481.462 483.107 481.462H496.972V504.108H483.107C478.956 504.108 475.592 507.472 475.592 511.623C475.592 515.774 478.956 519.138 483.107 519.138H496.972V541.783H483.107C478.956 541.783 475.592 545.147 475.592 549.298C475.592 553.449 478.956 556.813 483.107 556.813H496.972V579.459H483.107C478.956 579.459 475.592 582.824 475.592 586.974C475.592 591.125 478.956 594.489 483.107 594.489H496.972V630.331H266.772L342.68 554.424C345.615 551.488 345.615 546.731 342.68 543.796C342.343 543.459 341.981 543.167 341.602 542.907C338.676 540.903 334.65 541.198 332.051 543.796L301.595 574.252H56.928C34.136 574.252 15.788 556.458 15.066 533.707C15.109 532.279 15.22 530.863 15.398 529.463C15.399 529.455 15.4 529.447 15.401 529.439C15.485 528.774 15.586 528.112 15.701 527.454C15.714 527.379 15.728 527.304 15.741 527.229C15.846 526.642 15.964 526.058 16.093 525.476C16.129 525.314 16.167 525.152 16.205 524.991C16.319 524.499 16.442 524.01 16.574 523.523C16.646 523.259 16.721 522.998 16.798 522.735C16.908 522.353 17.022 521.972 17.143 521.595C17.264 521.218 17.393 520.845 17.524 520.472C17.615 520.211 17.705 519.95 17.803 519.691C17.986 519.199 18.18 518.712 18.38 518.229C18.437 518.09 18.493 517.949 18.552 517.81C18.809 517.21 19.076 516.617 19.358 516.031C19.37 516.006 19.381 515.981 19.393 515.956C25.271 503.792 36.576 494.723 50.143 491.909C50.181 491.901 50.219 491.892 50.257 491.884C50.879 491.757 51.507 491.648 52.139 491.547C52.244 491.53 52.349 491.509 52.456 491.493C53.027 491.406 53.604 491.338 54.181 491.273C54.343 491.255 54.504 491.23 54.667 491.214C55.224 491.158 55.786 491.121 56.348 491.086C56.526 491.075 56.704 491.056 56.882 491.047C57.618 491.01 58.36 490.991 59.105 490.991C63.255 490.991 66.62 487.627 66.62 483.476V428.987C66.62 424.836 63.255 421.472 59.105 421.472C54.955 421.472 51.59 424.836 51.59 428.987V476.434C38.9 478.039 27.121 483.699 17.833 492.769C16.856 493.723 15.93 494.715 15.028 495.723V215.882C15.028 194.141 30.854 176.024 51.589 172.446V246.151V398.928V398.929C51.589 403.079 54.954 406.444 59.104 406.444C63.254 406.444 66.619 403.079 66.619 398.929V398.928V253.666H284.859L243.315 295.21C240.38 298.146 240.38 302.903 243.315 305.838C246.25 308.772 251.008 308.772 253.942 305.838L308.315 251.465C308.317 251.463 308.318 251.461 308.32 251.46L357.505 202.275L392.008 236.78L387.96 240.828C387.957 240.831 387.953 240.834 387.95 240.837L236.422 392.367L201.918 357.863L231.786 327.995C234.721 325.059 234.721 320.302 231.786 317.367C228.851 314.433 224.093 314.433 221.159 317.367L185.976 352.549C185.788 352.737 185.612 352.936 185.447 353.14C185.392 353.208 185.343 353.281 185.291 353.352C185.185 353.493 185.081 353.635 184.984 353.783C184.929 353.869 184.879 353.957 184.827 354.046C184.744 354.186 184.664 354.328 184.591 354.473C184.543 354.567 184.5 354.662 184.456 354.76C184.389 354.907 184.327 355.057 184.27 355.207C184.25 355.26 184.224 355.31 184.205 355.363L169.564 396.838L159.582 425.117C159.45 425.493 159.355 425.875 159.284 426.26H134.292C130.142 426.26 126.777 429.624 126.777 433.775C126.777 437.926 130.142 441.29 134.292 441.29H342.406C346.557 441.29 349.921 437.926 349.921 433.775C349.921 429.624 346.557 426.26 342.406 426.26H193.093L238.923 410.082C238.961 410.068 238.997 410.049 239.035 410.035C239.213 409.969 239.388 409.895 239.561 409.816C239.63 409.784 239.699 409.754 239.766 409.721C239.946 409.631 240.123 409.532 240.297 409.426C240.353 409.392 240.411 409.361 240.466 409.326C240.647 409.21 240.823 409.083 240.996 408.949C241.039 408.916 241.084 408.887 241.126 408.853C241.335 408.685 241.54 408.504 241.734 408.31L396.378 253.667H461.633V414.213L354.137 521.71C351.202 524.646 351.202 529.403 354.137 532.338C354.32 532.521 354.511 532.693 354.708 532.854C356.086 533.977 357.769 534.539 359.451 534.539C361.133 534.539 362.817 533.977 364.194 532.854C364.391 532.694 364.582 532.521 364.765 532.338C364.768 532.335 364.765 532.338 364.768 532.335L496.972 400.13V466.432ZM222.677 399.876L201.151 407.475L186.809 393.133L194.408 371.607L222.677 399.876Z" fill="black"/>
<path d="M230.135 87.5022C228.85 87.5022 227.594 87.8833 226.525 88.5973C225.457 89.3113 224.624 90.3261 224.132 91.5135C223.64 92.7008 223.512 94.0073 223.762 95.2678C224.013 96.5282 224.632 97.686 225.541 98.5948C226.45 99.5035 227.607 100.122 228.868 100.373C230.128 100.624 231.435 100.495 232.622 100.003C233.809 99.5115 234.824 98.6787 235.538 97.6101C236.252 96.5415 236.633 95.2852 236.633 94.0001C236.631 92.2773 235.946 90.6256 234.728 89.4075C233.51 88.1893 231.858 87.5041 230.135 87.5022V87.5022ZM230.135 98.844C229.177 98.844 228.241 98.5599 227.444 98.0276C226.648 97.4954 226.027 96.7389 225.66 95.8538C225.294 94.9687 225.198 93.9947 225.385 93.0551C225.572 92.1155 226.033 91.2524 226.71 90.5749C227.388 89.8975 228.251 89.4362 229.19 89.2493C230.13 89.0624 231.104 89.1583 231.989 89.5249C232.874 89.8915 233.631 90.5124 234.163 91.309C234.695 92.1055 234.979 93.0421 234.979 94.0001C234.978 95.2843 234.467 96.5156 233.559 97.4237C232.651 98.3318 231.42 98.8426 230.135 98.844V98.844Z" fill="black"/>
<path d="M232.971 93.173C232.752 93.173 232.541 93.2601 232.386 93.4152C232.231 93.5703 232.144 93.7806 232.144 94C232.143 94.3517 232.05 94.6969 231.874 95.0016C231.698 95.3063 231.446 95.5598 231.143 95.7372C231.049 95.7919 230.967 95.8645 230.901 95.951C230.835 96.0374 230.787 96.136 230.759 96.241C230.732 96.346 230.725 96.4555 230.74 96.5631C230.754 96.6707 230.79 96.7744 230.845 96.8683C230.899 96.9621 230.972 97.0442 231.058 97.11C231.145 97.1758 231.243 97.2238 231.348 97.2515C231.453 97.2792 231.563 97.2859 231.671 97.2712C231.778 97.2566 231.882 97.2209 231.976 97.1662C232.529 96.8428 232.988 96.3806 233.308 95.8253C233.627 95.2699 233.796 94.6407 233.798 94C233.798 93.7806 233.711 93.5703 233.556 93.4152C233.401 93.2601 233.19 93.173 232.971 93.173V93.173Z" fill="black"/>
<path d="M251.51 92.0672C251.811 92.1464 252.122 92.187 252.433 92.1882C253.157 92.1877 253.865 91.9727 254.467 91.5703C255.069 91.1679 255.538 90.5961 255.815 89.9271C256.092 89.2582 256.165 88.5222 256.024 87.812C255.883 87.1018 255.535 86.4493 255.023 85.9369C254.963 85.8774 254.899 85.8235 254.834 85.7682C255.448 83.5405 255.307 81.6001 254.384 80C252.399 76.5597 247.187 75.4326 240.035 76.8564C237.685 69.9512 234.101 66 230.135 66C226.17 66 222.586 69.9507 220.234 76.8569C213.081 75.4321 207.87 76.5597 205.886 79.9995C204.991 81.5448 204.834 83.4866 205.405 85.6421C204.731 86.1692 204.264 86.9152 204.083 87.7509C203.902 88.5866 204.019 89.4593 204.414 90.2176C204.809 90.976 205.457 91.5723 206.245 91.9031C207.034 92.2339 207.913 92.2784 208.731 92.0289C209.222 92.6815 209.759 93.3417 210.338 94.0028C205.532 99.4866 203.902 104.563 205.885 108C207.31 110.47 210.394 111.751 214.667 111.751C216.538 111.728 218.402 111.524 220.233 111.141C222.585 118.048 226.169 122 230.135 122C231.927 122 233.695 121.16 235.283 119.579C236.065 119.921 236.941 119.98 237.761 119.744C238.582 119.509 239.294 118.995 239.775 118.29C240.256 117.586 240.476 116.735 240.397 115.886C240.318 115.036 239.944 114.241 239.341 113.638C239.282 113.578 239.218 113.523 239.155 113.469C239.465 112.737 239.761 111.956 240.041 111.141C241.871 111.524 243.734 111.729 245.604 111.751C249.876 111.751 252.961 110.47 254.386 108C256.37 104.563 254.739 99.4866 249.934 94.0033C250.492 93.3668 251.018 92.7193 251.51 92.0672ZM253.853 89.9472C253.476 90.3231 252.965 90.5342 252.433 90.5342C251.901 90.5342 251.39 90.3231 251.013 89.9472V89.9472C250.733 89.6664 250.542 89.3087 250.464 88.9193C250.387 88.5299 250.427 88.1264 250.579 87.7597C250.731 87.3929 250.988 87.0795 251.318 86.859C251.648 86.6385 252.036 86.5208 252.433 86.5208C252.83 86.5208 253.218 86.6385 253.549 86.859C253.879 87.0795 254.136 87.3929 254.288 87.7597C254.44 88.1264 254.48 88.5299 254.402 88.9193C254.325 89.3087 254.134 89.6664 253.853 89.9472H253.853ZM252.953 80.8265C253.6 81.9498 253.724 83.3463 253.335 84.9852C252.558 84.7877 251.738 84.8505 251.001 85.164C250.264 85.4775 249.649 86.0244 249.253 86.7207C248.856 87.417 248.699 88.2242 248.805 89.0184C248.912 89.8126 249.276 90.55 249.842 91.1173C249.901 91.1773 249.965 91.2312 250.028 91.2865C249.644 91.7861 249.239 92.282 248.813 92.7741C246.785 90.6693 244.578 88.7462 242.214 87.0272C241.906 84.1222 241.346 81.2494 240.542 78.441C246.774 77.2359 251.383 78.105 252.953 80.8261V80.8265ZM238.92 109.208C236.619 108.647 234.364 107.914 232.173 107.015C233.583 106.333 234.988 105.592 236.367 104.796C237.756 103.993 239.101 103.146 240.384 102.27C240.07 104.616 239.581 106.935 238.92 109.208V109.208ZM221.351 109.208C220.69 106.935 220.2 104.616 219.886 102.27C221.172 103.146 222.516 103.994 223.905 104.796C225.282 105.592 226.686 106.334 228.099 107.015C225.907 107.914 223.652 108.647 221.351 109.208ZM221.351 78.7916C223.652 79.353 225.907 80.0861 228.098 80.9848C226.687 81.6668 225.283 82.4078 223.904 83.2059C222.515 84.0093 221.17 84.8562 219.885 85.7328C220.199 83.3857 220.689 81.0654 221.351 78.7916V78.7916ZM217.849 98.7418C215.973 97.2972 214.209 95.7121 212.574 94C214.209 92.2881 215.973 90.7029 217.849 89.2582C217.732 90.8177 217.67 92.407 217.67 94C217.67 95.593 217.731 97.1804 217.849 98.7418ZM224.733 103.364C222.942 102.33 221.229 101.22 219.625 100.066C219.428 98.0859 219.324 96.0496 219.324 94C219.324 91.9504 219.428 89.9146 219.625 87.9336C221.228 86.7805 222.941 85.6704 224.733 84.6364C226.505 83.6124 228.321 82.6814 230.136 81.8586C231.952 82.6819 233.768 83.6128 235.54 84.6364C237.33 85.6699 239.043 86.7795 240.647 87.9336C240.845 89.9141 240.949 91.9504 240.949 94C240.949 96.0496 240.845 98.0854 240.647 100.066C239.045 101.22 237.331 102.33 235.54 103.364C233.768 104.388 231.952 105.319 230.137 106.141C228.32 105.318 226.504 104.387 224.732 103.364H224.733ZM238.921 78.7897C239.582 81.0628 240.072 83.3822 240.386 85.7285C239.1 84.8519 237.756 84.0041 236.369 83.2017C234.989 82.4078 233.585 81.6658 232.172 80.9848C234.364 80.0862 236.619 79.353 238.92 78.7916L238.921 78.7897ZM242.422 89.2582C244.298 90.7028 246.062 92.2879 247.697 94C246.062 95.7119 244.298 97.2971 242.422 98.7418C242.539 97.1823 242.601 95.593 242.601 94C242.601 92.407 242.54 90.8196 242.422 89.2582ZM230.135 67.654C233.272 67.654 236.332 71.212 238.413 77.2118C235.577 77.9168 232.807 78.8654 230.135 80.0473C227.463 78.8653 224.694 77.9166 221.858 77.2118C223.939 71.2115 226.999 67.654 230.135 67.654ZM206.237 89.9472C205.907 89.6186 205.702 89.1859 205.656 88.7227C205.609 88.2596 205.725 87.7948 205.983 87.4075C206.241 87.0202 206.626 86.7344 207.071 86.5988C207.516 86.4632 207.995 86.4863 208.425 86.664C208.855 86.8417 209.21 87.1632 209.43 87.5735C209.65 87.9838 209.72 88.4576 209.63 88.9141C209.539 89.3707 209.293 89.7817 208.934 90.0771C208.574 90.3725 208.123 90.534 207.657 90.5341C207.394 90.5352 207.132 90.4839 206.888 90.3832C206.644 90.2824 206.423 90.1342 206.236 89.9472H206.237ZM210.247 85.9369C209.819 85.5098 209.292 85.1952 208.713 85.0213C208.133 84.8473 207.52 84.8195 206.928 84.9403C206.546 83.3212 206.674 81.9394 207.318 80.8289C208.888 78.1064 213.497 77.2373 219.729 78.4429C218.925 81.2514 218.365 84.1244 218.056 87.0295C215.693 88.7468 213.485 90.6681 211.457 92.7713C210.997 92.2401 210.567 91.7121 210.167 91.1872C210.193 91.1627 210.221 91.14 210.247 91.1149C210.933 90.4277 211.318 89.4963 211.318 88.5252C211.318 87.5542 210.933 86.6228 210.247 85.9355V85.9369ZM207.317 107.173C205.751 104.455 207.302 100.027 211.46 95.2287C213.487 97.3326 215.694 99.2547 218.056 100.973C218.365 103.878 218.925 106.751 219.729 109.559C213.497 110.763 208.888 109.895 207.318 107.173H207.317ZM238.172 117.648C237.843 117.977 237.41 118.183 236.947 118.229C236.484 118.275 236.019 118.16 235.631 117.901C235.244 117.643 234.958 117.259 234.822 116.813C234.687 116.368 234.71 115.889 234.887 115.459C235.065 115.029 235.387 114.674 235.797 114.454C236.208 114.234 236.682 114.163 237.138 114.254C237.595 114.345 238.006 114.591 238.301 114.951C238.597 115.31 238.758 115.761 238.759 116.227C238.759 116.76 238.548 117.27 238.172 117.648ZM236.754 112.566C236.057 112.566 235.374 112.765 234.787 113.139C234.199 113.514 233.73 114.048 233.435 114.68C233.141 115.312 233.033 116.014 233.124 116.705C233.215 117.396 233.501 118.047 233.95 118.581C232.721 119.751 231.441 120.346 230.138 120.346C227.001 120.346 223.941 116.788 221.861 110.788C224.696 110.083 227.466 109.135 230.138 107.953C232.811 109.135 235.581 110.083 238.417 110.788C238.185 111.452 237.944 112.088 237.692 112.69C237.385 112.608 237.069 112.567 236.752 112.566H236.754ZM252.956 107.173C251.385 109.895 246.776 110.765 240.544 109.559C241.348 106.75 241.908 103.878 242.217 100.972C244.579 99.2543 246.785 97.3324 248.811 95.2287C252.969 100.027 254.52 104.455 252.953 107.173H252.956Z" fill="black"/>
<path d="M230.31 53.4978C207.937 53.4978 189.735 71.6997 189.735 94.073C189.735 116.446 207.937 134.648 230.31 134.648C252.683 134.648 270.885 116.446 270.885 94.073C270.885 71.6997 252.683 53.4978 230.31 53.4978ZM230.31 126.015C212.697 126.015 198.368 111.686 198.368 94.073C198.368 76.4596 212.697 62.1308 230.31 62.1308C247.923 62.1308 262.252 76.4596 262.252 94.073C262.252 111.686 247.923 126.015 230.31 126.015Z" fill="black"/>
<path d="M319.431 164.387L282.01 126.966C288.082 117.456 291.605 106.169 291.605 94.073C291.605 81.2212 287.625 69.2834 280.84 59.4195V4.31651C280.84 1.93231 278.908 0 276.524 0H122.856C111.908 0 103 8.90786 103 19.856V201.149C103 212.098 111.908 221.005 122.856 221.005H276.524C278.908 221.005 280.84 219.073 280.84 216.689V169.973L297.342 186.475C300.388 189.52 304.387 191.043 308.387 191.043C312.386 191.043 316.386 189.52 319.431 186.475C325.52 180.385 325.52 170.475 319.431 164.387V164.387ZM286.555 143.72L276.675 153.599L266.55 143.473C270.319 140.701 273.76 137.511 276.804 133.969L286.555 143.72ZM230.31 146.734C201.271 146.734 177.649 123.112 177.649 94.073C177.649 65.036 201.271 41.4115 230.31 41.4115C259.347 41.4115 282.972 65.036 282.972 94.073C282.972 123.112 259.349 146.734 230.31 146.734ZM122.856 8.63302H126.309V181.293H122.856C118.693 181.293 114.828 182.583 111.633 184.78V19.856C111.633 13.6678 116.668 8.63302 122.856 8.63302ZM200.012 189.926H217.388V200.687L211.746 195.069C210.061 193.392 207.338 193.392 205.654 195.069L200.012 200.687V189.926ZM208.699 204.22L216.887 212.372H200.511L208.699 204.22ZM272.207 212.372H225.82C225.95 211.961 226.021 211.524 226.021 211.077V189.926H272.207V212.372ZM272.207 181.293H179.186C176.802 181.293 174.87 183.226 174.87 185.61C174.87 187.994 176.802 189.926 179.186 189.926H191.379V211.077C191.379 211.524 191.448 211.961 191.578 212.372H122.856C116.666 212.372 111.633 207.338 111.633 201.149C111.633 194.961 116.666 189.926 122.856 189.926H144.654C147.037 189.926 148.971 187.994 148.971 185.61C148.971 183.226 147.037 181.293 144.654 181.293H134.942V8.63302H272.207V49.3768C261.239 39.0897 246.499 32.7785 230.31 32.7785C196.511 32.7785 169.016 60.276 169.016 94.073C169.016 127.872 196.511 155.367 230.31 155.367C240.693 155.367 250.48 152.769 259.06 148.193L272.206 161.338V181.293H272.207ZM313.325 180.369C310.601 183.093 306.169 183.094 303.446 180.369L282.779 159.702L292.658 149.823L313.325 170.49C316.05 173.213 316.05 177.646 313.325 180.369V180.369Z" fill="black"/>
<path d="M151.2 31.7988H187.172C189.554 31.7988 191.488 29.8665 191.488 27.4823C191.488 25.0981 189.554 23.1658 187.172 23.1658H151.2C148.817 23.1658 146.883 25.0981 146.883 27.4823C146.883 29.8665 148.817 31.7988 151.2 31.7988Z" fill="black"/>
<path d="M173.502 46.475C173.502 44.0908 171.57 42.1584 169.186 42.1584H151.2C148.817 42.1584 146.883 44.0908 146.883 46.475C146.883 48.8592 148.817 50.7915 151.2 50.7915H169.186C171.57 50.7915 173.502 48.8575 173.502 46.475Z" fill="black"/>
<path d="M161.92 181.293C160.784 181.293 159.671 181.755 158.868 182.558C158.066 183.361 157.604 184.475 157.604 185.61C157.604 186.745 158.064 187.859 158.868 188.662C159.671 189.464 160.784 189.926 161.92 189.926C163.055 189.926 164.17 189.464 164.971 188.662C165.775 187.859 166.237 186.745 166.237 185.61C166.237 184.475 165.775 183.361 164.971 182.558C164.17 181.755 163.055 181.293 161.92 181.293Z" fill="black"/>
</svg>
