<svg width="490" height="489" viewBox="0 0 490 489" fill="none" xmlns="http://www.w3.org/2000/svg">
<path d="M433.568 345.012C430.88 343.898 427.787 344.513 425.73 346.57L347.132 425.167C345.076 427.225 344.46 430.318 345.574 433.005C346.686 435.693 349.311 437.445 352.219 437.445H430.816C434.789 437.445 438.008 434.225 438.008 430.253V351.656C438.007 348.747 436.255 346.125 433.568 345.012ZM369.58 423.062L423.622 369.019V423.062H369.58Z" fill="white"/>
<path d="M485.56 229.732C482.873 228.618 479.78 229.234 477.722 231.291L456.182 252.83V106.375C456.182 102.402 452.962 99.1829 448.99 99.1829H393.73L413.79 79.1235C413.793 79.1206 413.795 79.1168 413.798 79.1139L433.127 59.7857C437.268 55.6447 439.548 50.136 439.548 44.279C439.548 38.4219 437.268 32.9152 433.127 28.7722L410.776 6.42168C406.635 2.28061 401.126 0 395.269 0C389.412 0 383.904 2.28061 379.762 6.42168L360.425 25.7595L337.058 49.1263L287.002 99.1819H63.7574V28.0314C63.7574 24.0588 60.537 20.8394 56.5653 20.8394C25.3757 20.8413 0 46.215 0 77.4066V382.878C0 383.409 0.06125 383.926 0.170352 384.423C1.16375 397.658 6.88967 409.955 16.459 419.29C26.6878 429.266 40.1905 434.76 54.4809 434.76H274.252L232.861 476.151C230.804 478.208 230.189 481.301 231.302 483.989C232.415 486.676 235.038 488.429 237.947 488.429H482.808C486.78 488.429 490 485.209 490 481.236V236.377C490 233.469 488.247 230.846 485.56 229.732ZM389.936 16.594C392.876 13.6521 397.666 13.6521 400.606 16.594L422.957 38.9454C425.899 41.8864 425.899 46.6744 422.957 49.6163L408.706 63.8684L375.683 30.8461L389.936 16.594ZM365.511 41.0174L398.534 74.0388L385.337 87.2353L352.317 54.2139L365.511 41.0174ZM475.618 317.191H462.348C458.376 317.191 455.156 320.41 455.156 324.383C455.156 328.355 458.376 331.575 462.348 331.575H475.618V353.248H462.348C458.376 353.248 455.156 356.467 455.156 360.44C455.156 364.413 458.376 367.632 462.348 367.632H475.618V389.304H462.348C458.376 389.304 455.156 392.524 455.156 396.496C455.156 400.469 458.376 403.688 462.348 403.688H475.618V425.361H462.348C458.376 425.361 455.156 428.582 455.156 432.553C455.156 436.526 458.376 439.745 462.348 439.745H475.618V474.047H255.309L327.955 401.402C330.764 398.592 330.764 394.039 327.955 391.231C327.633 390.908 327.286 390.629 326.924 390.38C324.124 388.462 320.271 388.744 317.783 391.231L288.636 420.378H54.4819C32.6692 420.378 15.1096 403.348 14.4186 381.575C14.4598 380.208 14.566 378.853 14.7364 377.513C14.7373 377.506 14.7383 377.498 14.7392 377.49C14.8196 376.854 14.9163 376.22 15.0263 375.591C15.0388 375.519 15.0522 375.447 15.0646 375.375C15.1651 374.814 15.278 374.255 15.4015 373.698C15.436 373.543 15.4723 373.388 15.5087 373.234C15.6178 372.763 15.7355 372.295 15.8618 371.829C15.9307 371.576 16.0025 371.326 16.0762 371.074C16.1815 370.709 16.2906 370.344 16.4064 369.983C16.5222 369.623 16.6456 369.266 16.771 368.909C16.8581 368.659 16.9442 368.409 17.038 368.161C17.2132 367.69 17.3988 367.224 17.5902 366.762C17.6448 366.629 17.6984 366.494 17.7548 366.361C18.0008 365.787 18.2563 365.219 18.5262 364.659C18.5377 364.635 18.5482 364.611 18.5597 364.587C24.1851 352.945 35.0044 344.266 47.9884 341.573C48.0248 341.565 48.0612 341.557 48.0975 341.549C48.6928 341.428 49.2938 341.323 49.8987 341.227C49.9991 341.21 50.0996 341.19 50.202 341.175C50.7485 341.092 51.3007 341.027 51.8529 340.964C52.0079 340.947 52.162 340.923 52.318 340.908C52.8511 340.854 53.3889 340.819 53.9268 340.785C54.0971 340.775 54.2675 340.757 54.4379 340.748C55.1422 340.713 55.8523 340.695 56.5653 340.695C60.537 340.695 63.7574 337.475 63.7574 333.502V281.355C63.7574 277.382 60.537 274.163 56.5653 274.163C52.5937 274.163 49.3732 277.382 49.3732 281.355V326.763C37.2285 328.299 25.9556 333.716 17.0667 342.396C16.1317 343.309 15.2455 344.258 14.3823 345.223V77.4066C14.3823 56.5998 29.5282 39.2612 49.3723 35.837V106.375V252.587V252.588C49.3723 256.56 52.5927 259.78 56.5644 259.78C60.5361 259.78 63.7565 256.56 63.7565 252.588V252.587V113.567H272.619L232.86 153.326C230.051 156.136 230.051 160.688 232.86 163.497C235.669 166.305 240.223 166.305 243.03 163.497L295.067 111.461C295.069 111.459 295.07 111.457 295.072 111.456L342.143 64.3843L375.164 97.4066L371.29 101.281C371.287 101.284 371.283 101.286 371.28 101.289L226.263 246.308L193.242 213.287L221.826 184.702C224.635 181.892 224.635 177.34 221.826 174.531C219.018 171.723 214.464 171.723 211.656 174.531L177.985 208.201C177.805 208.381 177.636 208.572 177.479 208.767C177.426 208.832 177.379 208.902 177.329 208.97C177.228 209.105 177.128 209.241 177.035 209.382C176.983 209.464 176.935 209.549 176.885 209.634C176.806 209.768 176.729 209.904 176.659 210.043C176.613 210.132 176.572 210.223 176.53 210.317C176.466 210.458 176.407 210.601 176.352 210.745C176.333 210.796 176.308 210.844 176.29 210.894L162.278 250.587L152.725 277.651C152.599 278.011 152.508 278.376 152.44 278.745H128.522C124.55 278.745 121.33 281.964 121.33 285.937C121.33 289.91 124.55 293.129 128.522 293.129H327.693C331.666 293.129 334.885 289.91 334.885 285.937C334.885 281.964 331.666 278.745 327.693 278.745H184.796L228.657 263.262C228.693 263.249 228.728 263.23 228.764 263.217C228.934 263.154 229.102 263.083 229.267 263.007C229.333 262.977 229.399 262.948 229.464 262.917C229.636 262.83 229.805 262.736 229.972 262.634C230.025 262.602 230.081 262.572 230.133 262.539C230.307 262.428 230.475 262.306 230.641 262.178C230.682 262.146 230.725 262.118 230.765 262.086C230.965 261.925 231.161 261.752 231.347 261.566L379.346 113.568H441.797V267.216L338.92 370.094C336.111 372.903 336.111 377.456 338.92 380.265C339.095 380.44 339.278 380.605 339.467 380.759C340.785 381.833 342.396 382.371 344.006 382.371C345.616 382.371 347.227 381.833 348.545 380.759C348.734 380.606 348.916 380.44 349.092 380.265C349.094 380.262 349.092 380.265 349.094 380.262L475.618 253.738V317.191ZM213.109 253.495L192.508 260.767L178.782 247.041L186.055 226.44L213.109 253.495Z" fill="white"/>
</svg>
